<svg xmlns="http://www.w3.org/2000/svg" xmlns:xlink="http://www.w3.org/1999/xlink" width="500" zoomAndPan="magnify" viewBox="0 0 375 225" height="300" preserveAspectRatio="xMidYMid meet" version="1.0"><defs><g/><clipPath id="id1"><path d="M 124 41 L 341 41 L 341 201 L 124 201 Z M 124 41 " clip-rule="nonzero"/></clipPath><clipPath id="id2"><path d="M 115.953125 177.453125 L 151.816406 4.335938 L 359.726562 47.40625 L 323.863281 220.523438 Z M 115.953125 177.453125 " clip-rule="nonzero"/></clipPath><clipPath id="id3"><path d="M 115.953125 177.453125 L 151.816406 4.335938 L 359.726562 47.40625 L 323.863281 220.523438 Z M 115.953125 177.453125 " clip-rule="nonzero"/></clipPath><clipPath id="id4"><path d="M 115.964844 177.457031 L 151.835938 4.289062 L 359.726562 47.351562 L 323.855469 220.519531 Z M 115.964844 177.457031 " clip-rule="nonzero"/></clipPath><clipPath id="id5"><path d="M 115.964844 177.457031 L 151.824219 4.339844 L 359.710938 47.402344 L 323.851562 220.519531 Z M 115.964844 177.457031 " clip-rule="nonzero"/></clipPath><clipPath id="id6"><path d="M 200 123 L 238 123 L 238 151.804688 L 200 151.804688 Z M 200 123 " clip-rule="nonzero"/></clipPath><clipPath id="id7"><path d="M 283 98.070312 L 313 98.070312 L 313 126 L 283 126 Z M 283 98.070312 " clip-rule="nonzero"/></clipPath></defs><rect x="-37.5" width="450" fill="rgb(100%, 100%, 100%)" y="-22.5" height="270" fill-opacity="1"/><rect x="-37.5" width="450" fill="rgb(100%, 100%, 100%)" y="-22.5" height="270" fill-opacity="1"/><rect x="-37.5" width="450" fill="rgb(100%, 100%, 100%)" y="-22.5" height="270" fill-opacity="1"/><rect x="-37.5" width="450" fill="rgb(100%, 100%, 100%)" y="-22.5" height="270" fill-opacity="1"/><g clip-path="url(#id1)"><g clip-path="url(#id2)"><g clip-path="url(#id3)"><g clip-path="url(#id4)"><g clip-path="url(#id5)"><path fill="rgb(3.529358%, 12.548828%, 25.099182%)" d="M 212.539062 141.445312 C 212.460938 141.886719 212.398438 142.324219 212.34375 142.738281 C 212.207031 143.785156 212.144531 144.847656 212.109375 145.90625 C 212.105469 146.066406 212.078125 146.222656 212.074219 146.382812 C 212.050781 147.601562 212.097656 148.828125 212.210938 150.042969 C 212.328125 151.304688 212.523438 152.570312 212.785156 153.804688 C 212.835938 154.050781 212.898438 154.300781 212.957031 154.550781 C 212.96875 154.597656 212.976562 154.640625 212.988281 154.6875 C 213.207031 155.597656 213.410156 156.457031 213.378906 157.292969 C 213.3125 159.136719 211.835938 160.253906 210.875 160.796875 C 210.625 160.933594 210.402344 161.046875 210.257812 161.109375 C 208.632812 161.816406 206.617188 162.019531 204.429688 161.703125 C 201.847656 161.328125 199.429688 160.402344 196.898438 159.398438 C 196.730469 159.328125 196.5625 159.265625 196.390625 159.195312 C 195.109375 158.683594 193.785156 158.160156 192.445312 157.707031 L 192.941406 157.582031 L 192.945312 157.578125 L 192.808594 157.554688 C 193.308594 157.382812 193.808594 157.195312 194.304688 156.988281 L 194.308594 156.988281 C 196.464844 156.097656 198.34375 154.871094 199.886719 153.351562 C 200.964844 152.28125 201.902344 151.09375 202.765625 149.890625 C 203.171875 149.328125 203.566406 148.765625 203.945312 148.210938 L 204.421875 147.5 C 205.449219 145.976562 206.515625 144.398438 207.71875 143.007812 C 208.015625 142.664062 208.363281 142.363281 208.683594 142.039062 C 209.742188 140.960938 210.890625 139.953125 212.1875 139.074219 C 212.714844 138.714844 213.261719 138.375 213.835938 138.046875 C 213.066406 139.046875 212.738281 140.269531 212.539062 141.445312 Z M 334.195312 42.265625 C 334.113281 42.199219 334.039062 42.128906 333.949219 42.085938 C 333.835938 42.035156 333.714844 42.015625 333.597656 42 C 333.5625 41.996094 333.53125 41.980469 333.5 41.976562 C 333.195312 41.964844 332.890625 42.066406 332.621094 42.296875 C 331.792969 43.050781 330.957031 43.808594 330.113281 44.5625 C 326.960938 47.398438 323.703125 50.183594 320.214844 52.617188 C 318.25 53.988281 316.214844 55.261719 314.070312 56.34375 C 313.117188 56.824219 312.140625 57.226562 311.144531 57.597656 C 311.070312 57.628906 310.996094 57.667969 310.917969 57.699219 C 309.84375 58.097656 308.746094 58.457031 307.617188 58.828125 C 306.789062 59.101562 305.949219 59.382812 305.105469 59.679688 C 304.390625 59.933594 303.675781 60.195312 302.96875 60.484375 C 300.195312 61.621094 297.5 63.457031 294.960938 65.949219 C 292.421875 68.433594 290.257812 71.261719 288.164062 74 C 286.398438 76.304688 284.570312 78.691406 282.558594 80.816406 C 282.035156 81.367188 281.484375 81.898438 280.90625 82.421875 C 279.636719 83.558594 278.214844 84.632812 276.59375 85.683594 C 275.863281 86.15625 275.101562 86.625 274.285156 87.09375 C 271.101562 88.914062 267.785156 90.972656 265.285156 94.269531 C 262.808594 97.550781 261.800781 101.34375 260.832031 105.011719 L 260.386719 106.652344 C 260.125 107.625 259.824219 108.527344 259.507812 109.339844 C 258.355469 110.753906 257.210938 112.171875 256.085938 113.605469 C 255.816406 113.945312 255.570312 114.257812 255.324219 114.550781 C 255.074219 114.847656 254.8125 115.144531 254.539062 115.414062 C 254.414062 115.46875 254.277344 115.507812 254.148438 115.558594 C 253.949219 115.636719 253.761719 115.71875 253.550781 115.78125 C 253.429688 115.816406 253.335938 115.886719 253.230469 115.949219 C 253.046875 116.050781 252.898438 116.1875 252.773438 116.355469 C 252.726562 116.421875 252.664062 116.46875 252.625 116.546875 C 252.597656 116.597656 252.578125 116.648438 252.558594 116.703125 C 251.613281 117.015625 250.464844 117.085938 249.304688 117.121094 C 249.070312 116.71875 248.796875 116.332031 248.574219 116.019531 L 248.488281 115.898438 L 248.339844 115.691406 C 248.21875 115.507812 248.109375 115.300781 248 115.09375 C 247.855469 114.828125 247.6875 114.539062 247.5 114.265625 C 247.417969 114.144531 247.34375 114.023438 247.246094 113.914062 C 247.011719 113.640625 246.761719 113.394531 246.511719 113.15625 C 246.15625 112.8125 245.847656 112.515625 245.621094 112.148438 C 245.363281 111.726562 245.164062 111.273438 244.988281 110.8125 C 244.664062 109.949219 244.460938 109.035156 244.3125 108.117188 C 244.273438 107.855469 244.226562 107.59375 244.191406 107.332031 C 244.066406 106.394531 243.964844 105.457031 243.863281 104.519531 C 243.742188 103.355469 243.613281 102.195312 243.441406 101.035156 C 243.332031 100.300781 243.203125 99.53125 243.066406 98.742188 C 242.816406 97.3125 242.519531 95.78125 242.152344 94.039062 C 242 93.3125 241.855469 92.574219 241.707031 91.835938 C 241.601562 91.300781 241.488281 90.757812 241.378906 90.21875 C 240.871094 87.738281 240.265625 85.253906 239.320312 82.898438 C 239.050781 82.238281 238.785156 81.574219 238.457031 80.9375 C 237.898438 79.867188 237.210938 78.816406 236.546875 77.800781 C 236.109375 77.136719 235.679688 76.480469 235.285156 75.820312 C 235.089844 75.492188 234.902344 75.164062 234.726562 74.835938 C 234.203125 73.84375 233.792969 72.847656 233.601562 71.800781 C 233.472656 71.105469 233.441406 70.390625 233.539062 69.644531 C 233.761719 67.957031 234.992188 66.667969 236.296875 65.300781 C 236.398438 65.191406 236.5 65.085938 236.601562 64.976562 C 237.847656 63.667969 239.140625 62.195312 239.5 60.226562 C 239.546875 59.960938 239.570312 59.679688 239.585938 59.390625 C 239.617188 58.582031 239.898438 57.832031 239.886719 57 C 239.878906 56.652344 239.839844 56.289062 239.652344 55.996094 C 239.464844 55.703125 239.089844 55.5 238.757812 55.609375 C 238.445312 55.710938 238.265625 56.042969 238.21875 56.367188 C 238.175781 56.6875 238.238281 57.015625 238.253906 57.34375 C 238.300781 58.542969 237.613281 59.246094 237.042969 60.179688 C 236.421875 61.195312 235.929688 62.125 235.097656 63.015625 C 234.902344 63.226562 234.710938 63.433594 234.507812 63.644531 C 234.398438 63.757812 234.292969 63.875 234.1875 63.988281 C 233.484375 64.722656 232.808594 65.5 232.242188 66.363281 C 231.851562 66.964844 231.5 67.597656 231.273438 68.324219 C 230.84375 69.695312 230.835938 71.027344 231.066406 72.285156 C 231.144531 72.703125 231.246094 73.113281 231.371094 73.515625 C 230.917969 73.253906 230.4375 73.046875 229.964844 72.824219 C 229.679688 72.691406 229.410156 72.53125 229.121094 72.410156 C 227.871094 71.894531 226.585938 71.5625 225.449219 71.265625 C 224.714844 71.074219 223.960938 70.855469 223.355469 70.488281 C 223.15625 70.367188 222.972656 70.226562 222.8125 70.066406 C 222.328125 69.585938 222.074219 68.871094 221.808594 68.113281 C 221.691406 67.777344 221.574219 67.441406 221.4375 67.121094 C 221.074219 66.261719 220.484375 65.492188 219.777344 64.78125 C 219.582031 64.589844 219.425781 64.378906 219.210938 64.195312 C 218.898438 63.9375 218.578125 63.699219 218.246094 63.476562 C 217.261719 62.816406 216.210938 62.304688 215.183594 61.804688 C 214.769531 61.605469 214.367188 61.390625 213.960938 61.179688 C 213.714844 61.054688 213.464844 60.9375 213.226562 60.804688 C 211.691406 59.933594 208.214844 57.214844 209.21875 55.03125 C 209.355469 54.738281 209.574219 54.488281 209.730469 54.203125 C 209.882812 53.914062 209.96875 53.554688 209.808594 53.269531 C 209.660156 52.996094 209.316406 52.863281 209.003906 52.898438 C 208.691406 52.933594 208.410156 53.109375 208.183594 53.324219 C 207.585938 53.875 207.277344 54.714844 207.363281 55.519531 C 207.507812 56.796875 207.363281 57.738281 208.0625 58.945312 C 208.777344 60.179688 209.882812 61.164062 211.050781 61.957031 C 211.085938 61.980469 211.109375 62.007812 211.148438 62.03125 C 212.132812 62.6875 213.183594 63.203125 214.199219 63.699219 C 214.855469 64.019531 215.480469 64.34375 216.082031 64.679688 C 216.417969 64.871094 216.757812 65.054688 217.074219 65.269531 C 217.792969 65.753906 218.308594 66.265625 218.730469 66.800781 C 218.863281 66.96875 219.027344 67.128906 219.128906 67.300781 C 219.394531 67.738281 219.574219 68.25 219.765625 68.792969 C 219.824219 68.953125 219.886719 69.113281 219.945312 69.273438 C 220.113281 69.730469 220.296875 70.191406 220.566406 70.640625 C 220.664062 70.800781 220.785156 70.941406 220.902344 71.089844 C 221.167969 71.433594 221.464844 71.753906 221.832031 72.023438 C 222.199219 72.296875 222.640625 72.523438 223.113281 72.726562 C 223.316406 72.816406 223.511719 72.910156 223.734375 72.988281 C 223.839844 73.023438 223.949219 73.046875 224.054688 73.078125 C 224.550781 73.234375 225.050781 73.375 225.554688 73.503906 C 226.113281 73.644531 226.667969 73.789062 227.214844 73.972656 C 229.378906 74.707031 231.441406 75.886719 233.191406 77.386719 C 233.371094 77.683594 233.554688 77.964844 233.734375 78.253906 C 233.953125 78.605469 234.167969 78.960938 234.386719 79.300781 L 235 80.269531 C 236.914062 83.339844 237.792969 86.753906 238.585938 90.359375 C 238.699219 90.863281 238.8125 91.363281 238.921875 91.878906 L 239.054688 92.496094 L 239.195312 93.148438 C 239.3125 93.675781 239.414062 94.226562 239.527344 94.765625 C 240.066406 97.4375 240.546875 100.230469 240.957031 103.242188 C 241.121094 104.449219 241.273438 105.691406 241.421875 106.96875 C 241.449219 107.203125 241.484375 107.441406 241.515625 107.679688 C 241.746094 109.457031 242.105469 111.285156 242.949219 112.933594 C 243.164062 113.355469 243.417969 113.71875 243.683594 114.066406 C 243.839844 114.277344 244 114.484375 244.15625 114.683594 C 244.210938 114.746094 244.257812 114.808594 244.304688 114.875 C 244.605469 115.25 244.890625 115.621094 245.101562 116.011719 C 245.136719 116.078125 245.183594 116.148438 245.234375 116.21875 C 245.277344 116.28125 245.328125 116.351562 245.378906 116.421875 C 245.429688 116.480469 245.472656 116.539062 245.53125 116.613281 C 245.628906 116.734375 245.683594 116.894531 245.75 117.042969 C 245.789062 117.128906 245.851562 117.203125 245.878906 117.300781 C 244.878906 117.441406 243.632812 117.792969 242.761719 118.769531 C 242.5 119.0625 242.269531 119.410156 242.09375 119.832031 C 241.070312 120.550781 240.484375 121.730469 240.472656 123.136719 C 240.46875 123.898438 240.644531 124.648438 240.929688 125.347656 C 241.277344 126.191406 241.796875 126.953125 242.472656 127.523438 C 242.363281 127.632812 242.25 127.730469 242.140625 127.835938 C 241.957031 128.015625 241.777344 128.195312 241.585938 128.359375 C 240.914062 128.933594 240.15625 129.269531 239.125 129.453125 C 237.96875 129.660156 236.796875 129.8125 235.628906 129.964844 C 235.46875 129.988281 235.3125 130.015625 235.152344 130.035156 C 234.347656 130.140625 233.542969 130.246094 232.742188 130.363281 C 231.96875 130.476562 231.253906 130.589844 230.558594 130.703125 C 229.625 130.851562 228.746094 131 227.921875 131.152344 C 227.398438 131.25 226.886719 131.347656 226.394531 131.445312 C 225.5 131.628906 224.679688 131.824219 223.855469 132.023438 C 223.554688 132.09375 223.222656 132.15625 222.929688 132.234375 C 222.730469 132.28125 222.558594 132.34375 222.359375 132.394531 C 221.484375 132.628906 220.621094 132.863281 219.816406 133.121094 C 218.988281 133.386719 218.214844 133.675781 217.457031 133.96875 C 217.308594 134.027344 217.144531 134.074219 216.996094 134.132812 C 216.101562 134.492188 215.246094 134.875 214.421875 135.285156 C 210.535156 137.210938 207.292969 139.871094 204.800781 143.1875 C 204.050781 144.179688 203.347656 145.226562 202.644531 146.273438 C 200.851562 148.9375 199.15625 151.457031 196.679688 153.25 C 196.082031 153.679688 195.453125 154.058594 194.796875 154.394531 C 192.804688 155.417969 190.578125 156.046875 188.289062 156.628906 C 187.636719 156.507812 186.976562 156.414062 186.320312 156.3125 C 185.925781 156.25 185.535156 156.179688 185.136719 156.121094 C 183.097656 155.824219 180.78125 155.492188 178.761719 154.601562 C 177.320312 153.96875 176.109375 152.976562 174.828125 151.925781 L 173.890625 151.164062 C 172.640625 150.171875 171.128906 149.1875 169.34375 148.828125 L 169.007812 148.398438 L 168.417969 148.460938 C 166.480469 148.671875 164.445312 148.050781 162.964844 146.800781 C 162.496094 146.40625 162.089844 145.949219 161.683594 145.496094 C 161.414062 145.199219 161.144531 144.902344 160.863281 144.617188 C 159.914062 143.65625 158.949219 143.0625 157.824219 142.746094 L 157.433594 142.640625 C 157.070312 142.542969 156.707031 142.453125 156.367188 142.289062 C 156.058594 142.140625 155.765625 141.921875 155.488281 141.644531 C 154.910156 141.0625 154.453125 140.285156 154.050781 139.597656 L 153.925781 139.382812 C 153.484375 138.621094 153.023438 137.832031 152.414062 137.113281 C 151.796875 136.386719 151.039062 135.722656 150.023438 135.015625 C 149.476562 134.636719 148.90625 134.28125 148.335938 133.925781 C 147.179688 133.207031 146.082031 132.527344 145.183594 131.632812 C 144.035156 130.496094 143.261719 128.90625 142.886719 126.910156 C 142.566406 125.207031 142.523438 123.402344 142.488281 121.660156 L 142.46875 120.914062 C 142.402344 118.398438 142.191406 116.316406 141.800781 114.359375 C 140.910156 109.894531 139.101562 105.566406 136.566406 101.851562 C 135.773438 100.695312 134.507812 99.695312 133.527344 98.671875 C 133.265625 98.394531 132.875 98.09375 132.539062 98.277344 C 132.296875 98.402344 132.230469 98.734375 132.308594 98.992188 C 132.386719 99.253906 132.578125 99.464844 132.757812 99.671875 C 134.371094 101.550781 135.628906 104.152344 136.753906 106.359375 C 137.929688 108.671875 138.832031 111.121094 139.429688 113.644531 C 139.914062 115.683594 140.195312 117.859375 140.273438 120.121094 L 140.3125 121.628906 C 140.347656 123.152344 140.382812 124.730469 140.585938 126.296875 C 140.910156 128.734375 141.621094 130.660156 142.773438 132.171875 C 143.976562 133.761719 145.605469 134.78125 147.179688 135.765625 L 147.761719 136.132812 C 148.695312 136.722656 149.449219 137.242188 150.113281 137.855469 C 150.667969 138.371094 151.171875 139.027344 151.703125 139.910156 L 152.050781 140.5 C 152.894531 141.953125 153.847656 143.59375 155.664062 144.359375 C 156.054688 144.523438 156.464844 144.636719 156.875 144.746094 C 157.074219 144.796875 157.277344 144.851562 157.472656 144.914062 C 157.875 145.039062 158.242188 145.234375 158.589844 145.5 C 159.113281 145.898438 159.574219 146.410156 160.058594 146.949219 C 160.269531 147.183594 160.476562 147.414062 160.691406 147.636719 C 161.574219 148.5625 162.605469 149.28125 163.722656 149.796875 C 163.363281 149.96875 163.007812 150.144531 162.660156 150.328125 L 161.925781 150.726562 C 160.308594 151.601562 158.785156 152.429688 157.070312 152.777344 C 156.742188 152.84375 156.382812 152.875 156.027344 152.914062 C 155.835938 152.933594 155.65625 152.976562 155.453125 152.988281 L 154.976562 152.804688 L 154.722656 153.011719 C 154.097656 153.019531 153.472656 152.929688 152.847656 152.855469 C 152.542969 152.820312 152.238281 152.828125 151.933594 152.777344 C 151.402344 152.6875 150.886719 152.53125 150.363281 152.398438 C 149.976562 152.300781 149.582031 152.234375 149.207031 152.121094 C 148.851562 152.011719 148.519531 151.871094 148.171875 151.75 C 146.789062 151.269531 145.46875 150.722656 144.308594 150.1875 C 141.957031 149.097656 139.742188 148.355469 137.527344 146.96875 C 137.199219 146.761719 136.855469 146.550781 136.472656 146.496094 C 136.269531 146.46875 136.011719 146.53125 135.984375 146.730469 C 135.964844 146.851562 136.050781 146.964844 136.128906 147.0625 C 137.882812 149.160156 139.574219 150.226562 141.972656 151.421875 C 143.125 151.992188 144.300781 152.519531 145.496094 153.015625 C 146.09375 153.265625 146.679688 153.542969 147.292969 153.757812 C 146.832031 153.832031 146.355469 153.957031 145.878906 154.152344 C 145.578125 154.277344 145.289062 154.472656 144.996094 154.648438 C 144.824219 154.75 144.648438 154.816406 144.480469 154.9375 C 144.417969 154.980469 144.355469 155.050781 144.292969 155.097656 C 143.890625 155.402344 143.488281 155.738281 143.066406 156.164062 C 142.753906 156.476562 142.46875 156.8125 142.175781 157.140625 C 142.019531 157.316406 141.859375 157.484375 141.703125 157.660156 C 141.433594 157.96875 141.164062 158.277344 140.886719 158.578125 C 140.597656 158.894531 140.285156 159.195312 139.96875 159.488281 C 139.910156 159.542969 139.855469 159.605469 139.753906 159.691406 C 139.386719 160.019531 139.003906 160.332031 138.613281 160.617188 C 138.308594 160.839844 137.988281 161.039062 137.664062 161.238281 C 136.230469 162.136719 134.632812 162.839844 132.964844 163.265625 C 130.9375 163.785156 128.808594 163.917969 126.800781 163.648438 C 126.660156 163.628906 126.515625 163.605469 126.371094 163.578125 C 126.265625 163.5625 126.15625 163.546875 126.042969 163.527344 C 125.699219 163.476562 125.339844 163.417969 125.003906 163.375 C 124.945312 163.957031 124.746094 164.625 125.121094 165.136719 C 126.289062 166.730469 131.023438 165.871094 132.636719 165.542969 C 133.210938 165.425781 133.777344 165.28125 134.332031 165.113281 C 135.507812 164.761719 136.632812 164.289062 137.707031 163.710938 C 138.160156 163.46875 138.609375 163.214844 139.046875 162.933594 C 139.242188 162.804688 139.421875 162.660156 139.609375 162.527344 C 140.371094 161.992188 141.097656 161.417969 141.753906 160.78125 C 142.3125 160.238281 142.828125 159.648438 143.339844 159.066406 L 143.613281 158.753906 L 144.003906 158.3125 C 144.253906 158.035156 144.527344 157.761719 144.800781 157.496094 C 144.875 157.425781 144.9375 157.347656 145.015625 157.277344 C 145.128906 157.175781 145.257812 157.101562 145.375 157.007812 C 145.632812 156.796875 145.882812 156.574219 146.164062 156.410156 C 146.671875 156.117188 147.269531 155.96875 147.921875 155.886719 C 148.175781 155.859375 148.410156 155.804688 148.691406 155.804688 C 148.976562 155.804688 149.261719 155.832031 149.546875 155.851562 C 149.824219 155.867188 150.097656 155.871094 150.375 155.894531 C 150.644531 155.914062 150.917969 155.925781 151.1875 155.945312 C 151.398438 155.957031 151.605469 155.976562 151.816406 155.984375 C 151.902344 155.984375 152 155.980469 152.089844 155.984375 C 152.75 155.988281 153.507812 155.953125 154.273438 155.714844 C 154.5625 155.625 154.847656 155.511719 155.128906 155.359375 C 155.257812 155.289062 155.382812 155.210938 155.5 155.128906 C 156.910156 155.042969 158.242188 154.71875 159.503906 154.253906 C 159.753906 154.160156 160.015625 154.105469 160.257812 154 C 161.117188 153.625 161.941406 153.171875 162.761719 152.71875 C 163.757812 152.171875 164.695312 151.652344 165.699219 151.273438 C 166.042969 151.140625 166.378906 151.070312 166.71875 151 C 167.84375 150.761719 168.9375 150.847656 169.984375 151.257812 C 170.296875 151.378906 170.609375 151.503906 170.917969 151.6875 C 171.84375 152.238281 172.675781 152.933594 173.558594 153.667969 C 174.226562 154.222656 174.894531 154.777344 175.601562 155.273438 C 177.933594 156.910156 180.5625 157.554688 183.195312 157.992188 C 182.339844 158.261719 181.570312 158.546875 180.84375 158.84375 C 180.023438 159.179688 179.261719 159.535156 178.5625 159.925781 C 177.125 160.722656 175.6875 161.746094 174.285156 162.96875 C 174.222656 163.023438 174.160156 163.089844 174.097656 163.144531 C 172.835938 164.265625 171.695312 165.949219 170.207031 166.613281 C 169.363281 166.988281 168.828125 167.183594 168.121094 167.855469 C 167.492188 168.457031 166.914062 169.167969 166.050781 169.445312 C 165.40625 169.648438 164.695312 169.5625 164.054688 169.773438 C 163.390625 169.992188 162.871094 170.503906 162.285156 170.882812 C 161.335938 171.5 160.210938 171.773438 159.164062 172.207031 C 157.804688 172.769531 156.675781 173.855469 155.320312 174.355469 C 154.222656 174.757812 152.945312 174.804688 151.886719 175.246094 C 150.941406 175.636719 150.433594 176.253906 149.28125 176.089844 C 148.898438 176.035156 148.457031 175.921875 148.164062 176.171875 C 147.804688 176.480469 147.984375 177.097656 148.34375 177.40625 C 149.726562 178.59375 151.816406 177.671875 153.234375 177.125 C 155.320312 176.308594 157.351562 175.636719 159.328125 174.546875 C 160.277344 174.027344 161.207031 173.472656 162.136719 172.925781 C 163.507812 172.117188 164.921875 171.277344 166.355469 170.5625 C 166.929688 170.28125 167.453125 170.042969 167.96875 169.828125 L 167.804688 170.035156 C 167.605469 170.28125 167.40625 170.53125 167.210938 170.777344 C 167.210938 170.777344 165.976562 172.351562 165.976562 172.351562 C 162.269531 177.109375 158.800781 182.09375 153.257812 184.882812 C 153.625 185.332031 154.277344 185.464844 154.851562 185.359375 C 158.058594 184.765625 161.296875 181.121094 163.355469 178.820312 C 163.59375 178.554688 163.820312 178.292969 164.042969 178.035156 C 164.609375 177.382812 165.140625 176.714844 165.683594 176.046875 C 166.042969 175.605469 166.421875 175.167969 166.773438 174.726562 L 167.972656 173.207031 C 168.511719 172.519531 169.214844 171.832031 169.59375 171.050781 C 169.855469 170.507812 169.847656 170.144531 170.257812 169.625 C 171.242188 168.375 172.460938 167.242188 173.632812 166.164062 C 176 163.984375 178.664062 162.015625 181.671875 160.789062 C 183.621094 159.996094 185.738281 159.472656 187.78125 158.960938 L 187.914062 158.929688 L 188.359375 158.816406 L 188.640625 158.875 C 190.585938 159.285156 192.433594 159.953125 194.328125 160.6875 C 194.765625 160.859375 195.203125 161.027344 195.644531 161.203125 C 196.160156 161.40625 196.691406 161.601562 197.210938 161.804688 C 198.664062 162.367188 200.140625 162.910156 201.671875 163.320312 C 202.367188 163.503906 203.359375 163.722656 204.5 163.855469 C 207.390625 164.195312 211.269531 163.972656 213.902344 161.175781 C 214.636719 160.386719 215.140625 159.492188 215.378906 158.550781 C 215.472656 158.171875 215.511719 157.792969 215.527344 157.417969 C 215.558594 156.679688 215.464844 155.964844 215.332031 155.304688 C 215.308594 155.1875 215.289062 155.0625 215.261719 154.949219 C 215.214844 154.730469 215.171875 154.503906 215.125 154.285156 C 214.722656 152.367188 214.375 150.335938 214.277344 148.238281 C 214.265625 147.992188 214.242188 147.753906 214.238281 147.507812 C 214.214844 146.316406 214.265625 145.117188 214.382812 143.945312 C 214.398438 143.777344 214.425781 143.613281 214.441406 143.445312 C 214.527344 142.648438 214.648438 141.878906 214.820312 141.144531 C 214.863281 140.953125 214.890625 140.75 214.945312 140.5625 C 215.230469 139.605469 215.761719 138.976562 216.671875 138.515625 C 217.4375 138.121094 218.257812 137.804688 219.066406 137.488281 L 219.847656 137.179688 C 220.71875 136.832031 221.667969 136.46875 222.652344 136.121094 C 223.464844 135.835938 224.296875 135.5625 225.152344 135.320312 C 225.71875 135.160156 226.292969 135.007812 226.871094 134.882812 C 227.332031 134.78125 227.804688 134.714844 228.277344 134.636719 C 229.445312 134.441406 230.621094 134.28125 231.78125 134.148438 C 232.554688 134.058594 233.324219 133.964844 234.09375 133.859375 C 237.488281 133.390625 242.308594 132.371094 245.25 128.808594 C 246.304688 129.042969 247.484375 129.082031 248.824219 128.933594 C 248.984375 129.070312 249.171875 129.15625 249.339844 129.28125 C 249.617188 129.484375 249.886719 129.707031 250.195312 129.859375 C 250.429688 129.976562 250.671875 130.054688 250.90625 130.128906 C 251.003906 130.15625 251.09375 130.183594 251.183594 130.207031 C 251.417969 130.265625 251.648438 130.3125 251.859375 130.34375 C 251.894531 130.367188 251.929688 130.382812 251.96875 130.40625 C 252.046875 130.453125 252.125 130.503906 252.207031 130.542969 C 252.464844 130.664062 252.726562 130.757812 252.984375 130.835938 C 253.015625 130.847656 253.046875 130.855469 253.078125 130.863281 C 253.320312 130.933594 253.554688 130.996094 253.777344 131.050781 C 253.855469 131.070312 253.929688 131.085938 254.003906 131.105469 C 254.039062 131.113281 254.074219 131.125 254.113281 131.132812 L 255.050781 131.769531 L 255.617188 132.148438 C 255.6875 132.335938 255.730469 132.550781 255.78125 132.757812 C 255.894531 133.222656 255.988281 133.714844 256.0625 134.234375 C 256.078125 134.324219 256.097656 134.410156 256.109375 134.5 C 256.171875 134.902344 256.230469 135.304688 256.316406 135.683594 C 256.433594 136.1875 256.601562 136.648438 256.800781 137.101562 C 257.054688 137.671875 257.390625 138.21875 257.808594 138.757812 C 257.886719 138.855469 257.949219 138.957031 258.035156 139.054688 C 258.332031 139.480469 258.671875 139.871094 258.988281 140.15625 C 259.035156 140.203125 259.0625 140.253906 259.109375 140.300781 C 259.179688 140.398438 259.222656 140.5 259.273438 140.601562 C 259.3125 140.671875 259.355469 140.746094 259.382812 140.820312 C 259.421875 140.921875 259.441406 141.027344 259.460938 141.132812 C 259.476562 141.207031 259.5 141.277344 259.507812 141.347656 C 259.515625 141.457031 259.503906 141.566406 259.496094 141.679688 C 259.492188 141.75 259.496094 141.820312 259.484375 141.894531 C 259.46875 142.007812 259.429688 142.125 259.394531 142.242188 C 259.375 142.316406 259.363281 142.390625 259.335938 142.464844 C 259.292969 142.585938 259.230469 142.714844 259.171875 142.839844 C 259.136719 142.917969 259.113281 142.992188 259.070312 143.070312 C 259.007812 143.195312 258.929688 143.328125 258.855469 143.457031 C 258.804688 143.542969 258.761719 143.628906 258.707031 143.71875 C 258.632812 143.835938 258.546875 143.960938 258.46875 144.085938 C 258.398438 144.195312 258.332031 144.300781 258.226562 144.457031 C 258.074219 144.683594 257.910156 144.921875 257.738281 145.167969 C 257.183594 145.957031 256.613281 146.769531 256.175781 147.632812 C 256.175781 147.632812 256.015625 147.335938 256.003906 147.316406 L 256.023438 147.851562 L 255.730469 148.351562 C 255.390625 148.929688 255.289062 149.554688 255.425781 150.210938 C 255.410156 150.527344 255.429688 150.839844 255.476562 151.179688 C 255.527344 151.5 255.609375 151.816406 255.722656 152.125 C 255.796875 152.316406 255.90625 152.476562 256.058594 152.628906 C 256.203125 152.765625 256.375 152.859375 256.5625 152.914062 C 256.542969 153.035156 256.472656 153.148438 256.359375 153.296875 C 256.296875 153.382812 256.234375 153.429688 256.171875 153.492188 C 256.121094 153.539062 256.070312 153.601562 256.023438 153.644531 C 255.707031 153.929688 255.277344 154.320312 255.074219 155.097656 C 254.902344 155.75 254.921875 156.445312 255.007812 157.144531 C 255.136719 158.261719 255.476562 159.390625 255.800781 160.394531 C 255.992188 160.980469 256.207031 161.558594 256.417969 162.136719 C 256.484375 162.3125 256.542969 162.492188 256.609375 162.667969 C 257.035156 163.8125 257.4375 164.894531 257.726562 166.019531 C 257.996094 167.074219 258.101562 168.167969 258.167969 169.277344 C 258.207031 169.910156 258.242188 170.539062 258.265625 171.195312 C 258.324219 172.929688 258.402344 174.710938 258.808594 176.46875 C 258.902344 176.875 258.996094 177.28125 259.128906 177.683594 C 259.269531 178.109375 259.433594 178.515625 259.617188 178.910156 C 260.882812 181.683594 263.046875 183.84375 265.148438 185.941406 L 265.480469 186.269531 C 267.605469 188.394531 269.773438 190.796875 270.691406 193.460938 C 271.523438 195.878906 270.679688 198.1875 271.339844 200.667969 C 271.359375 200.75 271.386719 200.839844 271.457031 200.890625 C 271.605469 200.992188 271.792969 200.851562 271.914062 200.722656 C 273.007812 199.542969 273.859375 198.375 273.507812 196.738281 C 273.214844 195.378906 273.109375 193.945312 272.667969 192.605469 C 271.769531 189.867188 269.925781 187.722656 268.027344 185.617188 L 267.214844 184.777344 C 264.152344 181.632812 261.257812 178.660156 260.800781 174.226562 C 260.695312 173.214844 260.667969 172.195312 260.640625 171.175781 C 260.628906 170.722656 260.609375 170.257812 260.589844 169.792969 C 260.550781 168.839844 260.492188 167.875 260.332031 166.90625 C 260.285156 166.617188 260.191406 166.351562 260.128906 166.070312 C 259.8125 164.628906 259.351562 163.242188 258.863281 161.90625 C 258.597656 161.175781 258.328125 160.449219 258.09375 159.707031 C 258.003906 159.425781 257.902344 159.109375 257.808594 158.78125 C 257.683594 158.359375 257.578125 157.910156 257.496094 157.460938 C 257.410156 157 257.351562 156.539062 257.371094 156.105469 C 257.382812 155.851562 257.480469 155.691406 257.71875 155.4375 C 257.785156 155.371094 257.851562 155.304688 257.9375 155.21875 C 258.34375 154.828125 258.84375 154.347656 259.042969 153.539062 C 259.308594 152.445312 258.753906 151.519531 258.304688 150.773438 C 258.210938 150.617188 258.117188 150.460938 258.03125 150.308594 C 258.058594 149.894531 258.222656 149.480469 258.4375 149.066406 C 258.710938 148.53125 259.085938 147.996094 259.511719 147.464844 C 259.679688 147.257812 259.847656 147.050781 260.015625 146.84375 C 260.105469 146.738281 260.175781 146.636719 260.261719 146.527344 C 260.597656 146.117188 260.9375 145.710938 261.199219 145.320312 C 261.421875 144.988281 261.585938 144.664062 261.757812 144.339844 C 262.0625 143.757812 262.3125 143.183594 262.445312 142.628906 C 262.675781 142.75 262.917969 142.867188 263.15625 142.984375 C 263.546875 143.179688 263.9375 143.378906 264.339844 143.574219 C 264.511719 143.660156 264.679688 143.746094 264.855469 143.832031 C 266.78125 144.769531 268.703125 145.78125 269.871094 147.429688 C 270.15625 147.832031 270.359375 148.273438 270.53125 148.726562 C 270.90625 149.730469 271.074219 150.839844 271.234375 152 C 271.332031 152.714844 271.429688 153.433594 271.578125 154.128906 C 272.140625 156.769531 273.269531 159.136719 275.375 160.796875 C 275.753906 161.09375 276.125 161.40625 276.414062 161.792969 C 276.933594 162.480469 277.160156 163.359375 277.722656 164.007812 C 277.832031 164.136719 277.96875 164.257812 278.136719 164.273438 C 278.382812 164.300781 278.597656 164.070312 278.640625 163.824219 C 278.6875 163.582031 278.605469 163.332031 278.519531 163.101562 C 277.214844 159.550781 274.332031 157.144531 273.675781 153.289062 C 273.609375 152.894531 273.5625 152.496094 273.515625 152.097656 C 273.496094 151.957031 273.476562 151.820312 273.457031 151.683594 C 273.367188 150.90625 273.242188 150.117188 273.074219 149.328125 C 272.957031 148.78125 272.832031 148.238281 272.617188 147.699219 C 272.574219 147.585938 272.511719 147.488281 272.464844 147.378906 C 271.320312 144.84375 269.011719 143.300781 266.660156 142.023438 C 266.246094 141.796875 265.8125 141.574219 265.375 141.347656 C 264.28125 140.785156 263.15625 140.207031 262.1875 139.511719 C 262.167969 139.472656 262.136719 139.433594 262.117188 139.394531 C 261.960938 139.078125 261.78125 138.769531 261.550781 138.476562 C 261.296875 138.15625 261.003906 137.867188 260.679688 137.546875 C 260.324219 137.199219 259.988281 136.867188 259.769531 136.5 C 259.714844 136.410156 259.675781 136.339844 259.683594 136.367188 C 259.496094 135.757812 259.386719 135.089844 259.273438 134.382812 C 259.191406 133.859375 259.105469 133.332031 258.988281 132.820312 C 258.980469 132.796875 258.980469 132.769531 258.972656 132.742188 C 258.957031 132.679688 258.9375 132.621094 258.921875 132.5625 C 258.804688 132.09375 258.664062 131.648438 258.464844 131.25 C 258.3125 130.789062 258.132812 130.390625 257.933594 130.019531 C 257.886719 129.929688 257.847656 129.832031 257.796875 129.75 C 257.644531 129.496094 257.472656 129.269531 257.292969 129.058594 C 257.042969 128.757812 256.773438 128.484375 256.46875 128.261719 C 256.421875 128.226562 256.363281 128.203125 256.316406 128.171875 C 256.097656 128.023438 255.875 127.882812 255.632812 127.773438 C 255.542969 127.734375 255.441406 127.714844 255.351562 127.683594 C 255.132812 127.601562 254.917969 127.515625 254.679688 127.460938 C 255.636719 127.050781 256.371094 126.582031 256.921875 126.027344 C 257.074219 126.136719 257.238281 126.207031 257.394531 126.296875 C 257.839844 126.542969 258.296875 126.746094 258.777344 126.867188 C 258.8125 126.875 258.851562 126.878906 258.886719 126.886719 C 260.816406 127.335938 262.988281 126.910156 264.988281 126.511719 C 265.617188 126.386719 266.238281 126.261719 266.84375 126.164062 C 268.050781 125.96875 269.1875 125.878906 270.175781 126.089844 C 270.671875 126.191406 271.128906 126.371094 271.542969 126.652344 C 271.714844 126.769531 271.882812 126.949219 272.054688 127.144531 C 272.15625 127.261719 272.253906 127.378906 272.359375 127.507812 C 272.511719 127.695312 272.675781 127.894531 272.851562 128.085938 C 273.332031 128.609375 273.929688 129.101562 274.816406 129.257812 C 276.246094 129.503906 277.398438 128.667969 278.242188 128.058594 L 278.605469 127.800781 C 280.484375 126.503906 282.050781 127.175781 283.847656 128.8125 C 284.449219 129.359375 285.074219 130.015625 285.746094 130.738281 C 286.402344 131.445312 287.035156 132.125 287.648438 132.667969 C 291.914062 136.429688 297.664062 137.253906 303.1875 137.777344 C 303.960938 137.851562 304.746094 137.917969 305.542969 137.980469 C 308.992188 138.261719 312.511719 138.570312 315.640625 139.664062 C 317.0625 140.160156 318.417969 140.804688 319.632812 141.707031 C 320.441406 142.3125 321.125 143.140625 321.851562 144.019531 C 322.363281 144.644531 322.902344 145.300781 323.519531 145.890625 C 324.339844 146.675781 325.289062 147.347656 326.488281 147.675781 C 326.789062 147.757812 327.105469 147.816406 327.4375 147.851562 C 329.703125 148.09375 331.800781 147.402344 333.824219 146.734375 C 335.398438 146.214844 336.886719 145.722656 338.390625 145.667969 C 338.742188 145.65625 339.054688 145.496094 339.273438 145.253906 C 339.375 145.136719 339.457031 145.003906 339.519531 144.820312 C 339.566406 144.683594 339.59375 144.535156 339.585938 144.359375 C 339.578125 144.199219 339.542969 144.046875 339.480469 143.910156 C 339.449219 143.835938 339.390625 143.78125 339.34375 143.71875 C 339.300781 143.660156 339.269531 143.589844 339.214844 143.539062 C 339.117188 143.445312 338.996094 143.378906 338.824219 143.296875 C 338.746094 143.265625 338.65625 143.265625 338.570312 143.253906 C 338.496094 143.242188 338.429688 143.214844 338.351562 143.214844 C 336.449219 143.269531 334.703125 143.804688 333.019531 144.328125 C 332.199219 144.578125 331.414062 144.796875 330.621094 144.984375 C 330.148438 145.097656 329.679688 145.210938 329.199219 145.273438 C 327.496094 145.488281 326.222656 145.070312 325.183594 143.957031 C 324.765625 143.511719 324.390625 143.035156 324.019531 142.5625 C 323.636719 142.078125 323.226562 141.589844 322.789062 141.113281 C 322.542969 140.851562 322.304688 140.582031 322.023438 140.335938 C 318.398438 137.167969 313.597656 136.242188 309.277344 135.761719 C 308.664062 135.695312 308.054688 135.632812 307.464844 135.578125 C 308.519531 135.078125 309.539062 134.496094 310.503906 133.839844 C 311.867188 132.910156 313.070312 131.8125 314.25 130.707031 C 315.328125 129.699219 316.441406 128.65625 317.675781 127.890625 C 318.890625 127.136719 320.164062 126.710938 321.359375 126.671875 C 321.78125 126.652344 322.175781 126.707031 322.554688 126.789062 C 322.738281 126.828125 322.929688 126.863281 323.105469 126.929688 C 323.601562 127.113281 324.101562 127.425781 324.675781 127.917969 C 324.839844 128.058594 324.996094 128.207031 325.152344 128.351562 C 325.25 128.4375 325.347656 128.523438 325.441406 128.613281 C 325.554688 128.71875 325.671875 128.816406 325.78125 128.921875 C 325.972656 129.09375 326.15625 129.269531 326.355469 129.433594 C 326.699219 129.726562 327.078125 129.929688 327.449219 130.160156 C 327.667969 130.300781 327.875 130.484375 328.105469 130.597656 C 329.253906 131.183594 330.570312 131.535156 331.914062 131.617188 C 332.308594 131.644531 332.691406 131.597656 333.078125 131.578125 C 334.042969 131.535156 334.992188 131.402344 335.882812 131.105469 C 337.132812 130.6875 338.277344 130.03125 339.230469 129.167969 C 339.296875 129.109375 339.351562 129.042969 339.410156 128.984375 C 340.554688 127.878906 341.128906 126.441406 340.675781 124.847656 C 340.625 124.664062 340.5 124.449219 340.3125 124.476562 C 339.628906 125.8125 338.53125 127.035156 337.332031 127.941406 C 336.003906 128.945312 334.328125 129.523438 332.546875 129.519531 C 332.019531 129.519531 331.496094 129.460938 330.9375 129.355469 C 330.414062 129.25 329.910156 129.089844 329.433594 128.882812 C 328.941406 128.667969 328.480469 128.398438 328.0625 128.085938 C 327.90625 127.96875 327.769531 127.828125 327.625 127.699219 C 327.378906 127.488281 327.128906 127.28125 326.890625 127.0625 L 326.613281 126.804688 C 326.613281 126.804688 326.449219 126.652344 326.449219 126.652344 C 325.914062 126.167969 325.265625 125.621094 324.492188 125.226562 C 323.789062 124.867188 323.019531 124.648438 322.195312 124.574219 C 320.71875 124.441406 319.113281 124.773438 317.550781 125.535156 C 315.632812 126.46875 314.121094 127.894531 312.65625 129.273438 C 311.855469 130.027344 311.097656 130.742188 310.28125 131.375 C 309.03125 132.347656 307.636719 133.160156 306.167969 133.824219 C 305.007812 134.347656 303.800781 134.789062 302.566406 135.121094 C 302.539062 135.128906 302.511719 135.132812 302.488281 135.140625 C 298.585938 134.769531 294.140625 134.164062 290.660156 131.699219 C 290.0625 131.277344 289.527344 130.769531 289.003906 130.21875 C 288.601562 129.792969 288.203125 129.34375 287.796875 128.875 C 287.167969 128.152344 286.53125 127.417969 285.816406 126.75 C 285.105469 126.082031 284.316406 125.480469 283.390625 125.023438 C 282.300781 124.484375 280.632812 123.953125 278.871094 124.457031 C 278.433594 124.582031 278.007812 124.835938 277.589844 125.113281 C 277.398438 125.238281 277.207031 125.363281 277.019531 125.492188 C 276.382812 125.941406 275.511719 126.554688 275.167969 126.339844 C 274.984375 126.222656 274.78125 125.941406 274.582031 125.664062 C 274.367188 125.375 274.148438 125.09375 273.867188 124.8125 C 273.707031 124.660156 273.507812 124.546875 273.328125 124.414062 C 272.96875 124.148438 272.578125 123.925781 272.15625 123.742188 C 271.945312 123.652344 271.746094 123.539062 271.519531 123.46875 C 270.257812 123.078125 268.941406 123.070312 267.761719 123.175781 C 267.71875 123.179688 267.683594 123.183594 267.640625 123.1875 C 267.300781 123.222656 266.964844 123.261719 266.660156 123.308594 C 266.128906 123.386719 265.546875 123.5 264.929688 123.621094 C 264.648438 123.675781 264.359375 123.730469 264.074219 123.785156 C 264.046875 123.789062 264.019531 123.796875 263.992188 123.800781 C 263.945312 123.808594 263.898438 123.816406 263.847656 123.824219 C 261.742188 124.210938 259.589844 124.421875 258.320312 123.285156 C 258.285156 123.253906 258.242188 123.234375 258.207031 123.203125 C 258.238281 122.921875 258.25 122.632812 258.257812 122.339844 C 258.269531 121.910156 258.265625 121.472656 258.257812 121.019531 C 258.234375 119.925781 258.210938 118.683594 258.464844 117.296875 C 258.488281 117.160156 258.539062 117.023438 258.570312 116.886719 C 258.625 116.660156 258.671875 116.433594 258.75 116.207031 C 258.851562 116.109375 258.9375 115.996094 259.035156 115.894531 C 259.292969 115.636719 259.546875 115.378906 259.785156 115.085938 C 259.878906 114.964844 259.964844 114.820312 260.058594 114.695312 C 260.28125 114.394531 260.503906 114.101562 260.707031 113.765625 C 260.816406 113.589844 260.914062 113.382812 261.019531 113.195312 C 261.191406 112.882812 261.371094 112.578125 261.535156 112.230469 C 261.644531 112 261.746094 111.730469 261.851562 111.484375 C 261.988281 111.164062 262.132812 110.863281 262.261719 110.515625 C 262.261719 110.515625 262.328125 110.414062 262.339844 110.421875 L 262.757812 109.773438 L 262.839844 109.648438 L 262.644531 109.433594 C 262.875 108.734375 263.085938 108.027344 263.296875 107.277344 C 263.492188 106.582031 263.675781 105.886719 263.859375 105.199219 C 264.300781 103.519531 264.71875 101.9375 265.25 100.535156 C 265.773438 99.152344 266.515625 97.875 267.371094 96.660156 C 268.511719 95.042969 269.921875 93.597656 271.585938 92.359375 C 271.929688 92.105469 272.238281 91.824219 272.597656 91.585938 C 273.648438 90.902344 274.726562 90.273438 275.804688 89.644531 C 277.632812 88.574219 279.507812 87.457031 281.242188 86.09375 C 281.5625 85.839844 281.886719 85.597656 282.195312 85.328125 C 282.417969 85.132812 282.617188 84.910156 282.835938 84.707031 C 285.746094 82.015625 288.167969 78.875 290.496094 75.816406 C 291.191406 74.898438 291.898438 73.972656 292.617188 73.050781 C 293.34375 72.132812 294.082031 71.21875 294.839844 70.347656 C 294.898438 70.277344 294.953125 70.226562 295.011719 70.15625 C 297.472656 67.355469 299.738281 65.417969 302.132812 64.089844 C 304.003906 63.046875 306.035156 62.402344 308.183594 61.714844 C 309.195312 61.394531 310.226562 61.042969 311.253906 60.667969 C 311.867188 60.441406 312.488281 60.214844 313.085938 59.945312 C 321.320312 56.242188 327.914062 50.074219 334.289062 44.105469 C 334.753906 43.664062 334.785156 43 334.425781 42.503906 C 334.394531 42.460938 334.382812 42.414062 334.339844 42.371094 C 334.296875 42.324219 334.242188 42.300781 334.195312 42.265625 " fill-opacity="1" fill-rule="nonzero"/></g></g></g></g></g><path fill="rgb(3.529358%, 12.548828%, 25.099182%)" d="M 287.410156 135.046875 C 291.445312 133.132812 294.703125 130.300781 297.417969 126.851562 C 301.570312 121.578125 301.160156 115.863281 296.359375 111.1875 C 294.601562 109.476562 292.628906 108.023438 290.496094 106.792969 C 286.242188 104.320312 281.542969 103.222656 276.753906 102.257812 C 265.460938 99.988281 254.34375 102.230469 243.183594 103.394531 C 242.234375 103.492188 241.285156 103.867188 241.117188 105.09375 C 241.945312 106.019531 243.070312 106.09375 244.261719 106.09375 C 248.308594 106.109375 252.269531 105.367188 256.269531 104.996094 C 266.019531 104.089844 275.636719 104.535156 284.871094 108.207031 C 288.304688 109.578125 291.371094 111.484375 293.800781 114.28125 C 296.453125 117.328125 296.519531 121.808594 294.003906 124.976562 C 292.003906 127.496094 289.601562 129.597656 286.777344 131.175781 C 281.777344 133.964844 276.34375 135.691406 270.785156 136.785156 C 258.445312 139.214844 246.195312 138.273438 234.085938 135.078125 C 232.367188 134.625 230.628906 134.21875 228.859375 133.460938 C 228.125 133.140625 227.445312 133.980469 227.917969 134.617188 C 228.191406 134.980469 228.527344 135.242188 228.878906 135.5 C 231.011719 137.042969 233.433594 137.976562 235.9375 138.675781 C 243.742188 140.832031 251.71875 141.980469 259.808594 141.9375 C 269.550781 141.894531 278.675781 139.1875 287.410156 135.046875 " fill-opacity="1" fill-rule="nonzero"/><path fill="rgb(3.529358%, 12.548828%, 25.099182%)" d="M 227.917969 115.882812 C 223.320312 117.746094 219.292969 120.472656 216.226562 124.472656 C 211.867188 130.152344 212.425781 135.417969 218.070312 139.816406 C 223.570312 144.097656 229.886719 146.144531 236.875 146.179688 C 237.726562 146.1875 238.703125 146.269531 239.144531 145.179688 C 238.742188 144.394531 237.992188 144.117188 237.167969 143.976562 C 235.960938 143.769531 234.742188 143.621094 233.542969 143.390625 C 227.984375 142.339844 222.992188 140.121094 218.910156 136.175781 C 216.058594 133.410156 215.867188 130.769531 217.96875 127.429688 C 219.894531 124.367188 222.59375 122.128906 225.703125 120.378906 C 233.652344 115.898438 242.34375 113.925781 251.375 113.546875 C 257.277344 113.304688 263.117188 114.007812 268.496094 116.742188 C 270.484375 117.753906 272.496094 118.984375 272.476562 121.46875 C 272.453125 124.050781 270.445312 125.445312 268.386719 126.636719 C 268.269531 126.703125 268.144531 126.757812 268.011719 126.800781 C 259.9375 129.871094 251.710938 130.421875 243.320312 128.269531 C 242.460938 128.046875 241.652344 127.691406 240.917969 127.164062 C 239.394531 126.089844 239.378906 125.234375 241.003906 124.324219 C 244.167969 122.550781 247.609375 121.789062 251.234375 121.839844 C 252.121094 121.855469 253.019531 122.015625 253.769531 122.535156 C 254.570312 123.09375 255.269531 123.179688 255.871094 122.304688 C 256.484375 121.421875 256.242188 120.570312 255.527344 119.933594 C 254.652344 119.140625 253.535156 118.753906 252.351562 118.679688 C 247.570312 118.375 243.085938 119.449219 239.058594 121.957031 C 235.636719 124.09375 235.851562 127.640625 239.335938 129.753906 C 241.660156 131.160156 244.210938 131.84375 246.886719 132.117188 C 252.550781 132.703125 258.203125 132.667969 263.777344 131.488281 C 268.128906 130.566406 272.136719 128.890625 274.769531 125.035156 C 276.585938 122.378906 276.410156 119.4375 274.292969 117.011719 C 273.117188 115.667969 271.6875 114.636719 270.101562 113.820312 C 266.144531 111.78125 261.871094 110.9375 257.484375 110.609375 C 247.183594 109.847656 237.378906 112.0625 227.917969 115.882812 " fill-opacity="1" fill-rule="nonzero"/><g clip-path="url(#id6)"><path fill="rgb(3.529358%, 12.548828%, 25.099182%)" d="M 205.683594 128.59375 C 206.425781 127.394531 207.335938 126.289062 208.167969 125.140625 C 208.550781 124.621094 209.242188 124.167969 208.558594 123.382812 C 207.792969 123.160156 207.078125 123.507812 206.460938 123.871094 C 202.269531 126.363281 198.125 133.542969 203.109375 139.402344 C 206.570312 143.472656 211.175781 146.003906 215.910156 148.285156 C 221.710938 151.074219 227.945312 151.625 234.269531 151.601562 C 235.308594 151.601562 236.261719 151.371094 237.152344 150.703125 C 236.453125 149.214844 235.042969 149.234375 233.828125 149.074219 C 229.570312 148.5 225.328125 147.832031 221.136719 146.863281 C 215.445312 145.535156 210.785156 142.375 206.695312 138.40625 C 203.785156 135.582031 203.535156 132.066406 205.683594 128.59375 " fill-opacity="1" fill-rule="nonzero"/></g><g clip-path="url(#id7)"><path fill="rgb(3.529358%, 12.548828%, 25.099182%)" d="M 308.820312 125.355469 C 309.609375 125.414062 310.0625 124.9375 310.519531 124.421875 C 311.761719 123.019531 312.167969 121.328125 312.234375 119.539062 C 312.410156 114.289062 310.101562 110.121094 306.167969 106.820312 C 301.417969 102.839844 295.871094 100.257812 289.925781 98.535156 C 288.351562 98.085938 286.710938 97.988281 285.070312 98.03125 C 284.304688 98.046875 283.71875 98.195312 283.585938 99.183594 C 284.136719 99.804688 284.828125 99.9375 285.46875 100.117188 C 291.019531 101.703125 296.269531 103.964844 301.113281 107.058594 C 306.917969 110.757812 311.085938 116.269531 308.570312 123.929688 C 308.394531 124.441406 308.234375 124.96875 308.820312 125.355469 " fill-opacity="1" fill-rule="nonzero"/></g><path fill="rgb(3.529358%, 12.548828%, 25.099182%)" d="M 247.710938 147.394531 C 247.394531 146.246094 245.886719 145.503906 244.808594 145.914062 C 243.878906 146.261719 243.386719 146.957031 243.585938 147.976562 C 243.792969 149.042969 245.242188 149.828125 246.335938 149.457031 C 247.378906 149.109375 247.8125 148.332031 247.710938 147.394531 " fill-opacity="1" fill-rule="nonzero"/><path fill="rgb(3.529358%, 12.548828%, 25.099182%)" d="M 237.269531 104.136719 C 236.910156 103.371094 236.335938 103.007812 235.492188 103.28125 C 234.636719 103.566406 234.328125 104.285156 234.652344 105.011719 C 234.96875 105.722656 235.695312 105.988281 236.519531 105.6875 C 237.277344 105.402344 237.5625 104.914062 237.269531 104.136719 " fill-opacity="1" fill-rule="nonzero"/><path fill="rgb(3.529358%, 12.548828%, 25.099182%)" d="M 209.566406 118.851562 C 209.394531 118.300781 208.851562 117.953125 208.300781 118.160156 C 207.785156 118.359375 207.507812 118.886719 207.777344 119.480469 C 208.007812 119.976562 208.460938 120.074219 208.945312 120 C 209.460938 119.753906 209.703125 119.308594 209.566406 118.851562 " fill-opacity="1" fill-rule="nonzero"/><g fill="rgb(3.529358%, 12.548828%, 25.099182%)" fill-opacity="1"><g transform="translate(10.325528, 180.674854)"><g><path d="M 48.609375 -25.398438 L 5.742188 -61.390625 L 5.742188 0 L 18.28125 0 L 18.28125 -34.617188 L 61.148438 1.050781 L 61.148438 -60.257812 L 48.609375 -60.257812 Z M 48.609375 -25.398438 "/></g></g></g><g fill="rgb(3.529358%, 12.548828%, 25.099182%)" fill-opacity="1"><g transform="translate(80.045098, 180.674854)"><g><path d="M 65.433594 -32.917969 L 34.535156 -32.917969 L 34.535156 -21.757812 L 50.875 -21.757812 C 48.207031 -14.71875 41.492188 -11 34.214844 -11 C 24.101562 -11 16.09375 -19.492188 16.09375 -30.089844 C 16.09375 -40.765625 24.101562 -49.339844 34.214844 -49.339844 C 41.332031 -49.339844 47.558594 -45.292969 50.714844 -39.390625 L 60.742188 -46.667969 C 55.324219 -55.484375 45.375 -61.308594 34.132812 -61.308594 C 16.984375 -61.308594 3.234375 -47.316406 3.234375 -30.089844 C 3.234375 -12.859375 16.984375 1.050781 34.214844 1.050781 C 51.523438 1.050781 65.433594 -13.265625 65.433594 -31.058594 Z M 65.433594 -32.917969 "/></g></g></g><g fill="rgb(3.529358%, 12.548828%, 25.099182%)" fill-opacity="1"><g transform="translate(151.382286, 180.674854)"><g><path d="M 32.351562 -40.84375 L 32.351562 -38.015625 C 30.574219 -39.957031 26.042969 -41.734375 22.40625 -41.734375 C 11.484375 -41.734375 2.34375 -32.191406 2.34375 -20.382812 C 2.34375 -8.734375 11.242188 0.890625 22.40625 0.890625 C 26.125 0.890625 30.574219 -0.566406 32.351562 -2.910156 L 32.351562 0 L 43.839844 0 L 43.839844 -40.84375 Z M 23.535156 -10.515625 C 18.28125 -10.515625 13.992188 -14.558594 13.992188 -20.382812 C 13.992188 -26.125 18.28125 -30.25 23.535156 -30.25 C 28.875 -30.25 32.839844 -26.125 32.839844 -20.382812 C 32.839844 -14.558594 28.875 -10.515625 23.535156 -10.515625 Z M 23.535156 -10.515625 "/></g></g></g><g fill="rgb(3.529358%, 12.548828%, 25.099182%)" fill-opacity="1"><g transform="translate(202.094827, 180.674854)"><g><path d="M 36.476562 0 L 36.476562 -10.917969 L 19.734375 -10.917969 L 36.71875 -40.84375 L 3.074219 -40.84375 L 3.074219 -30.25 L 18.84375 -30.25 L 0.648438 0 Z M 36.476562 0 "/></g></g></g><g fill="rgb(3.529358%, 12.548828%, 25.099182%)" fill-opacity="1"><g transform="translate(242.85902, 180.674854)"><g><path d="M 9.707031 -48.042969 C 13.589844 -48.042969 16.582031 -51.035156 16.582031 -54.597656 C 16.582031 -57.910156 13.589844 -60.90625 9.707031 -60.90625 C 6.148438 -60.90625 3.074219 -57.832031 3.074219 -54.597656 C 3.074219 -51.035156 6.148438 -48.042969 9.707031 -48.042969 Z M 15.53125 -40.84375 L 4.042969 -40.84375 L 4.042969 0 L 15.53125 0 Z M 15.53125 -40.84375 "/></g></g></g><g fill="rgb(3.529358%, 12.548828%, 25.099182%)" fill-opacity="1"><g transform="translate(265.263222, 180.674854)"><g><path d="M 45.214844 -20.382812 C 45.214844 -32.191406 37.449219 -41.734375 26.285156 -41.734375 C 22.566406 -41.734375 17.792969 -40.601562 15.53125 -38.015625 L 15.53125 -40.84375 L 4.042969 -40.84375 L 4.042969 0 L 15.53125 0 L 15.53125 -20.382812 C 15.53125 -26.933594 20.21875 -30.25 25.316406 -30.25 C 30.007812 -30.25 33.808594 -26.933594 33.808594 -20.382812 L 33.808594 0 L 45.214844 0 Z M 45.214844 -20.382812 "/></g></g></g><g fill="rgb(3.529358%, 12.548828%, 25.099182%)" fill-opacity="1"><g transform="translate(316.784565, 180.674854)"><g><path d="M 22.96875 8.976562 C 19.574219 8.976562 16.582031 7.199219 14.882812 4.367188 L 5.582031 11.082031 C 9.382812 16.660156 15.691406 20.382812 22.96875 20.382812 C 34.535156 20.382812 43.839844 11 43.839844 -0.40625 L 43.839844 -40.84375 L 32.351562 -40.84375 L 32.351562 -38.015625 C 30.574219 -39.957031 26.042969 -41.734375 22.40625 -41.734375 C 11.484375 -41.734375 2.34375 -32.191406 2.34375 -20.382812 C 2.34375 -8.734375 11.242188 0.890625 22.40625 0.890625 C 26.125 0.890625 30.574219 -0.566406 32.351562 -2.910156 L 32.351562 0.324219 C 32.351562 5.175781 28.226562 8.976562 22.96875 8.976562 Z M 23.535156 -10.515625 C 18.28125 -10.515625 13.992188 -14.558594 13.992188 -20.382812 C 13.992188 -26.125 18.28125 -30.25 23.535156 -30.25 C 28.875 -30.25 32.839844 -26.125 32.839844 -20.382812 C 32.839844 -14.558594 28.875 -10.515625 23.535156 -10.515625 Z M 23.535156 -10.515625 "/></g></g></g></svg>